<svg xmlns="http://www.w3.org/2000/svg" viewBox="0 0 109 109" width="109" height="109">
  <g fill="none" stroke="#000" stroke-width="3" stroke-linecap="round" stroke-linejoin="round">
    <path d="M31.76,14c0.23,1.98-0.06,4.56-0.81,6.25C26.2,31.04,20.64,41.66,9.75,54.79"/>
    <path d="M24.03,38.5c0.47,0.75,1.19,1.93,1.25,3.25c0.59,13.17-1.02,48.23-0.53,55.5"/>
    <path d="M45.07,18.89c0.83,0.38,2.36,0.49,3.19,0.38c5.3-0.66,28.24-2.77,36.67-2.88c1.39-0.02,2.22,0.18,2.91,0.37"/>
    <path d="M42.98,34.07c0.56,0.69,1.13,1.54,1.13,2.46c0,0.92,2.3,22.3,2.48,23.22"/>
    <path d="M45.04,35.18c3.17-0.12,39.43-4.3,42.32-4.44c2.41-0.12,3.8,1.51,3.1,4.96c-1.09,5.43-1.57,9.05-4.81,21.07"/>
    <path d="M45.55,46.18c7.26-1.07,18.63-2.08,25.94-2.68c2.2-0.18,4.37-0.35,6.42-0.51"/>
    <path d="M48.39,57.16c12.36-1.41,24.35-2.16,37.53-3.25"/>
    <path d="M66.75,20.5c0.75,1.5,0.71,2.75,0.71,4.93C67.46,60,66.75,87,37,99.04"/>
    <path d="M44.97,65.75c8.99,1.68,36.35,23.79,43.68,27.88c2.49,1.38,4.62,1.98,7.1,2.37"/>
  </g>
</svg>