<svg xmlns="http://www.w3.org/2000/svg" viewBox="0 0 109 109" width="109" height="109">
  <g fill="none" stroke="#000" stroke-width="3" stroke-linecap="round" stroke-linejoin="round">
    <path d="M27.75,15.5c4.79,2.12,11.55,10.31,12.63,14.49"/>
    <path d="M13.5,37.54c0.89,0.09,2.92,0.56,3.78,0.5c7.25-0.47,22.21-4.55,30.51-5.17c1.46-0.11,1.95-0.13,3.7-0.13"/>
    <path d="M41.59,40.81c0.35,1.04,0.67,1.78,0.17,3.7c-4.5,17.54-15.81,35.7-27.88,43.24"/>
    <path d="M21.71,53.26C31.75,59,42.57,71.84,47.75,80.5"/>
    <path d="M54.38,43.17c1.58,0.8,4.51,1.17,6.07,0.8C67.75,42.25,85,39,91.08,38.79c2.64-0.09,4.22-0.12,5.54,0.28"/>
    <path d="M78.27,13.83c0.98,0.67,2.17,2.99,2.26,6.02c0.4,14.55-0.02,64.66-0.26,69.62c-0.31,6.27-1.29,5.94-3.96,4c-1.99-1.45-2.56-2.22-4.75-3.75"/>
    <path d="M56.46,59.37c3.18,1.59,8.21,6.53,9,9"/>
  </g>
</svg>