<svg xmlns="http://www.w3.org/2000/svg" viewBox="0 0 109 109" width="109" height="109">
  <g fill="none" stroke="#000" stroke-width="3" stroke-linecap="round" stroke-linejoin="round">
    <path d="M45.94,11.5c0.06,0.57,0.13,1.47-0.12,2.29c-1.45,4.82-9.76,15.4-21.14,21.88"/>
    <path d="M48.09,19.04c0.32,0.03,1.68,0,2.6-0.08c3.01-0.25,11.87-2.17,16.16-2.94c2.94-0.52,3.79,1.6,3.03,3.03C63.25,31.5,37.38,53.73,19,57.75"/>
    <path d="M40.25,27c6.25,3.25,32.25,21.25,41.92,24.53c2.66,0.9,4.55,1.85,7,2.23"/>
    <path d="M17.75,67c0.75,0.25,2.76,0.41,4.75,0.25c9.5-0.75,47.75-2.75,61.5-4c1.99-0.18,2.5-0.25,3.75,0"/>
    <path d="M52.25,50.25c1.25,0.5,2,2.25,2.25,3.25s-0.25,38.73-0.25,40c0,12.75-5.62,1.88-6.5,1"/>
    <path d="M43.75,74.45c-3.04,6.81-10.93,16.45-17.25,20.3"/>
    <path d="M62.25,73c4.94,3.19,13.97,14.88,16.82,19.85"/>
  </g>
</svg>