<svg xmlns="http://www.w3.org/2000/svg" viewBox="0 0 109 109" width="109" height="109">
  <g fill="none" stroke="#000" stroke-width="3" stroke-linecap="round" stroke-linejoin="round">
    <path d="M26.79,28.33c0.98,0.39,2.78,0.43,3.76,0.39c10.22-0.44,36.19-4.21,46.34-4.42c1.64-0.03,2.62,0.18,3.44,0.38"/>
    <path d="M31,38.25c2.45,1.86,6.14,7.11,6.75,10"/>
    <path d="M73.77,32.25c0.03,0.34,0.05,0.88-0.05,1.37c-0.63,2.89-4.26,9.24-9.22,13.13"/>
    <path d="M18.37,57.25c0.81,0.25,2.98,0.99,5.12,0.75c9.01-1,52.65-5.5,62.08-5c2.15,0.11,2.7-0.25,4.04,0"/>
    <path d="M51.42,11.5c1.35,0.5,2.16,2.25,2.43,3.25s-0.27,77.72-0.27,79c0,12.5-5.95,4.62-8.58,2"/>
    <path d="M51.42,55.25C45.23,67.07,30.18,83.68,16.25,90.5"/>
    <path d="M54.75,56.75c7.18,4.13,28.63,24.38,34.41,28.57c1.96,1.42,3.64,2.03,5.59,2.43"/>
  </g>
</svg>